<svg width="71px" height="24px" viewBox="0 0 71 24" version="1.1" xmlns="http://www.w3.org/2000/svg" xmlns:xlink="http://www.w3.org/1999/xlink">
  <g id="Flow-3" stroke="none" stroke-width="1" fill="none" fill-rule="evenodd">
    <g id="Lecture-Copy" transform="translate(-685.000000, -22.000000)" fill="#212529">
      <g id="Logo" transform="translate(685.000000, 22.000000)">
        <path d="M22.7195309,3.64952002 C22.2685314,4.669171 18.7977964,11.9439886 18.7977964,16.6696787 C18.7977964,18.2775898 19.719404,19.4148928 20.4449249,19.3756755 C20.7586636,19.3560668 20.5037509,20.061979 19.5233173,20.061979 C17.8957974,20.061979 15.0525399,18.2579811 15.0525399,16.7285047 C15.0525399,13.8068125 16.5035817,11.1204243 17.3859719,8.29677544 C15.0525399,12.1400753 13.2681507,17.7677643 10.2091977,17.7677643 C9.97389368,17.7677643 9.79741562,17.6893296 9.64054624,17.5128516 C8.91502535,17.3363735 6.75807136,15.630419 6.75807136,14.6303767 C6.75807136,11.7675105 9.34641615,5.64960463 10.3464585,2.98282515 C10.1111544,2.92399913 9.81702429,2.90439046 9.46406819,2.90439046 C6.50315862,2.90439046 1.83629452,6.66925561 1.83629452,7.3947765 C1.83629452,8.12029738 2.13042461,7.80655862 2.22846798,7.94381933 C2.38533736,8.21834075 1.50294709,8.41442747 1.09116496,8.41442747 C0.659774162,8.41442747 -0.301050798,5.98295206 0.189166019,4.37504091 C0.71860018,2.80634709 7.03259278,0.316045665 9.20915544,0.316045665 C9.89545899,0.316045665 10.6405885,0.806262482 11.1700227,1.2964793 C11.8955436,1.68865275 13.7779762,3.47304196 13.7779762,4.31621489 C13.7779762,5.27703985 10.9347186,9.41446978 10.3660671,14.1009425 C11.3857181,17.4736342 19.2880132,1.15921859 19.2880132,1.15921859 L19.2880132,1.21804461 C19.3272305,1.17882726 19.3272305,1.15921859 19.3272305,1.15921859 C19.6801866,1.15921859 23.1705304,2.66908638 22.7195309,3.64952002 Z M36.6220798,5.76725666 C36.249515,5.76725666 33.6807789,4.76721436 33.6807789,3.86521542 C33.6807789,2.82595577 35.0729947,1.02195788 35.0729947,0.669001773 C35.3279074,0.669001773 38.0535129,2.02200019 37.7593828,2.68869506 C37.327992,3.61030267 36.6220798,5.17899648 36.6220798,5.76725666 Z M43.8380714,9.23799173 C43.8380714,9.23799173 44.5832009,8.15951473 44.5832009,10.29686 C44.5832009,10.29686 38.9359032,18.6109373 38.6025558,18.6109373 C38.3868604,18.6109373 38.1319476,18.4932852 37.9162522,18.3168072 C37.0730793,17.8658077 35.5632115,16.767722 35.5632115,16.0618098 C35.5632115,13.7479864 38.8574685,5.2378225 40.8967705,1.66904408 C41.3281613,1.39452266 43.7792453,3.13969453 43.4655066,3.8063894 C43.1125505,4.61034498 39.5045547,11.257685 38.6025558,16.3755486 C40.3085103,14.3362466 43.8380714,9.23799173 43.8380714,9.23799173 Z M48.112762,5.76725666 C48.112762,5.17899648 48.8186742,3.61030267 49.250065,2.68869506 C49.5441951,2.02200019 46.8185896,0.669001773 46.5636769,0.669001773 C46.5636769,1.02195788 45.1714611,2.82595577 45.1714611,3.86521542 C45.1714611,4.76721436 47.7401972,5.76725666 48.112762,5.76725666 Z M60.093661,8.96347031 C60.093661,8.96347031 60.7603559,10.120382 60.1132697,11.0223809 C59.5642268,11.7479018 58.6230105,12.4145967 57.7014029,12.8459875 C57.0935341,13.1401176 56.4856652,13.3165956 55.897405,13.3754217 C54.8777541,15.0617675 53.2698429,16.8461567 51.5834971,16.8461567 C50.269716,16.8461567 48.0343273,14.7676374 47.9166753,13.6891604 C47.5833278,10.4537294 50.0148032,6.72808163 52.0148879,6.72808163 C52.8580608,6.72808163 54.818928,8.13990606 55.2307102,8.53207951 C55.9954484,8.66934022 56.8386213,9.12033969 56.9954907,10.5713815 C57.0150994,10.8851202 56.85823,11.4537717 56.5444912,12.159684 C56.8190127,12.0812493 57.0543167,11.9635972 57.2504035,11.8851625 C58.4073151,11.316511 59.4857921,10.0419473 60.093661,8.96347031 Z M55.0738408,9.84586058 C54.9954061,9.23799173 54.6032327,9.06151367 54.2698852,9.00268765 C53.8973204,9.21838305 53.5443643,9.53212182 53.1914082,9.92429527 C53.1521909,10.0419473 53.1521909,10.1595993 53.1521909,10.29686 C53.2306256,10.9831636 53.8777118,11.7282932 54.3875373,12.0224232 C54.8385367,11.081207 55.1130581,10.238034 55.0738408,9.84586058 Z M51.2501496,15.689245 C52.0737139,15.689245 53.1129735,14.3950726 53.8973204,12.9832482 C53.5247557,12.7871615 53.1521909,12.453814 52.8384521,12.0812493 C52.6423654,11.8263365 52.4070613,11.4929891 52.2501919,11.1008156 C51.4266277,12.3557707 50.8579762,13.8656385 50.9952369,15.1009849 C50.9952369,15.2382456 51.0344542,15.689245 51.2501496,15.689245 Z" id="Combined-Shape"></path>
        <path d="M30.6568981,14.1147543 C30.9367381,14.9210112 32.8139876,16.0629424 33.4846922,16.3167226 C33.6807789,16.4539833 33.8768656,16.5716353 34.092561,16.5716353 C34.4259085,16.5716353 38.6417731,9.9046866 38.6417731,9.9046866 C38.6417731,7.7477326 37.9358609,8.84581827 37.9358609,8.84581827 L33.7199963,14.4538987 C34.1317784,11.8263365 35.6416462,8.66934022 35.9749936,7.94381933 C36.2691237,7.27712446 33.5435182,5.92412605 33.2886055,5.92412605 C33.2886055,6.15292435 31.8703439,9.07224825 31.1023942,11.5336073 C30.1529207,12.8820634 28.9019303,14.6081225 28.2099592,15.3558976 C28.9158715,12.8655962 30.2688699,9.66938252 30.2688699,8.88503562 C30.2688699,8.29677544 28.0726985,6.72808163 27.6216991,6.72808163 C26.9157869,6.72808163 25.2686584,9.53212182 24.0137033,11.9832059 C24.6215722,10.3556861 25.1902237,8.90464429 25.1902237,8.64973155 C25.1902237,8.27716677 23.6411385,6.9633857 22.6410962,6.9633857 C22.6410962,8.37521013 19.9939254,14.1009425 19.9939254,14.9441155 C19.9939254,15.4147236 22.3469661,16.8461567 22.6410962,16.8461567 C22.9352263,15.8461144 25.4255277,11.6694671 26.9353955,9.45368712 C26.1706573,11.7871192 25.052963,14.8068548 25.052963,15.5912017 C25.052963,16.0618098 27.4648297,17.669721 27.7785685,17.669721 L27.7785685,17.6501123 C27.8177858,17.6501123 27.8570031,17.669721 27.8962205,17.669721 C28.0445429,17.669721 29.3746313,15.8846063 30.6568981,14.1147543 Z M69.3097371,9.70859987 C69.3097371,9.70859987 70.0744754,8.53207951 70.0744754,10.6498162 C70.0744754,10.6498162 65.1330899,17.669721 64.8389598,17.669721 C64.7997424,17.669721 64.7605251,17.6501123 64.7213077,17.6501123 L64.7213077,17.669721 C64.407569,17.669721 61.9957022,16.0618098 61.9957022,15.5912017 C61.9957022,14.8068548 63.1133966,11.7871192 63.8781348,9.45368712 C62.368267,11.6694671 59.8779656,15.8461144 59.5838355,16.8461567 C59.2897054,16.8461567 56.9366647,15.4147236 56.9366647,14.9441155 C56.9366647,14.1009425 59.5838355,8.37521013 59.5838355,6.9633857 C60.5838778,6.9633857 62.132963,8.27716677 62.132963,8.64973155 C62.132963,8.90464429 61.5643114,10.3556861 60.9564426,11.9832059 C62.2113976,9.53212182 63.8585261,6.72808163 64.5644384,6.72808163 C65.0154378,6.72808163 67.2116092,8.29677544 67.2116092,8.88503562 C67.2116092,9.66938252 65.8586108,12.8655962 65.1526985,15.3558976 C66.3684362,14.0421165 69.3097371,9.70859987 69.3097371,9.70859987 Z M49.4265431,8.84581827 C49.4265431,8.84581827 50.1324553,7.7477326 50.1324553,9.9046866 C50.1324553,9.9046866 45.9165907,16.5716353 45.5832432,16.5716353 C45.3675478,16.5716353 45.1714611,16.4539833 44.9753744,16.3167226 C44.2498535,16.0422011 42.1125082,14.7284201 42.1125082,13.9244645 C42.1125082,11.6106411 44.7792876,6.23786481 44.7792876,5.92412605 C45.0342004,5.92412605 47.7598059,7.27712446 47.4656758,7.94381933 C47.1323284,8.66934022 45.6224606,11.8263365 45.2106784,14.4538987 L49.4265431,8.84581827 Z" id="Combined-Shape"></path>
        <path d="M66.2362328,19.1271347 C63.3029359,20.4791271 39.3135699,17.8605313 29.1720939,20.2087287 C24.9881666,21.2333966 25.806761,22.9127135 26.6026168,23.2258065 C32.0144358,20.7210626 58.9370987,22.158444 60.89263,22.101518 C62.8481612,22.044592 68.1690254,20.0094877 66.2362328,19.1271347 Z" id="Line"></path>
      </g>
    </g>
  </g>
</svg>